Title: Le Havre
Year: 2011 
Country: Finland / France
Language: French
Genre: Comedy / Drama
Runtime: 93 min
Source: BRRIP
Size: 1,46 GB
Directed by: Aki Kaurismaki
Starring:
Andre Wilms  ...  Marcel Marx
Kati Outinen  ...  Arletty
Jean-Pierre Darroussin  ...  Monet
Blondin Miguel  ...  Idrissa
Elina Salo  ...  Claire
Evelyne Didi  ...  Yvette
Quoc Dung Nguyen  ...  Chang
Laika  ...  Laika - Dog
François Monnie  ...  Epicier
Little Bob  ...  Little Bob (as Roberto Piazza)
Pierre Etaix  ...  Docteur Becker
Jean-Pierre Leaud  ...  Le denonciateur

IMDB Rating: 7.5/10

IMDB Link:                        
http://www.imdb.com/title/tt1508675/


Plot: When an African boy arrives by cargo ship in the port city of Le Havre, an aging shoe shiner takes pity on the child and welcomes him into his home. [IMDB]

This film represents Finland in the Oscar 2012.



General
Complete name                    : F:\Filmes\Le.Havre.2011.BRRip.XviD.AC3.HORiZON-ArtSubs.avi
Format                           : AVI
Format/Info                      : Audio Video Interleave
File size                        : 1.46 GiB
Duration                         : 1h 29mn
Overall bit rate                 : 2 339 Kbps
Writing application              : FairUse Wizard - http://fairusewizard.com
Writing library                  : The best and REALLY easy backup tool

Video
ID                               : 0
Format                           : MPEG-4 Visual
Format profile                   : Advanced Simple@L5
Format settings, BVOP            : Yes
Format settings, QPel            : No
Format settings, GMC             : No warppoints
Format settings, Matrix          : Default (H.263)
Muxing mode                      : Packed bitstream
Codec ID                         : XVID
Codec ID/Hint                    : XviD
Duration                         : 1h 29mn
Bit rate                         : 1 881 Kbps
Width                            : 704 pixels
Height                           : 384 pixels
Display aspect ratio             : 16:9
Frame rate                       : 23.976 fps
Color space                      : YUV
Chroma subsampling               : 4:2:0
Bit depth                        : 8 bits
Scan type                        : Progressive
Compression mode                 : Lossy
Bits/(Pixel*Frame)               : 0.290
Stream size                      : 1.18 GiB (80%)
Writing library                  : XviD 1.1.0 (UTC 2005-11-22)

Audio
ID                               : 1
Format                           : AC-3
Format/Info                      : Audio Coding 3
Mode extension                   : CM (complete main)
Codec ID                         : 2000
Duration                         : 1h 29mn
Bit rate mode                    : Constant
Bit rate                         : 448 Kbps
Channel(s)                       : 6 channels
Channel positions                : Front: L C R, Side: L R, LFE
Sampling rate                    : 48.0 KHz
Bit depth                        : 16 bits
Compression mode                 : Lossy
Stream size                      : 287 MiB (19%)
Alignment                        : Split accross interleaves
Interleave, duration             : 42 ms (1.00 video frame)
Interleave, preload duration     : 500 ms


THIS TORRENT HAS SOFT SUBTITLES IN ENGLISH.



Thanks to those helping me seed. Leechers remember, the community depends on you. If nobody shares, the freebies go away. Remember, the only reason you can download this free movie is because others are generous enough to keep sharing it with you. If nobody shares, everybody loses, so even if its for an extra hour or two after you get it, remember, others want to see it too, and they can't without you.


SEE MY OTHERS UPLOADS:                                                
http://thepiratebay.org/user/noriegaRJ

AND SEE THIS ANOTHERS UPLOADS FROM "HORiZON-ArtSubs":     
http://thepiratebay.org/user/lletaif						
		